<svg width="20" height="20" viewBox="0 0 20 20" fill="none" xmlns="http://www.w3.org/2000/svg">
<g clip-path="url(#clip0_755_2132)">
<path d="M9.96875 19.375C14.0625 19.375 17.5312 16.75 18.8125 13.125H1.15625C2.4375 16.7812 5.90625 19.375 9.96875 19.375Z" fill="#0FBE7B"/>
<path d="M1.29882 6.775C2.60366 3.25752 6.00026 0.725 9.96875 0.725C13.9679 0.725 17.365 3.25732 18.7 6.775H1.29882Z" fill="#428BC1" stroke="#C6C6C6" stroke-width="0.2"/>
<path d="M0.675 10C0.675 8.92443 0.857271 7.87939 1.19164 6.925H18.8084C19.1427 7.87939 19.325 8.92443 19.325 10C19.325 11.0756 19.1427 12.1206 18.8084 13.075H1.19164C0.857271 12.1206 0.675 11.0756 0.675 10Z" fill="white" stroke="#FF0000" stroke-width="0.1"/>
</g>
<defs>
<clipPath id="clip0_755_2132">
<rect width="20" height="20" fill="white"/>
</clipPath>
</defs>
</svg>
