<svg width="20" height="20" viewBox="0 0 20 20" fill="none" xmlns="http://www.w3.org/2000/svg">
<g clip-path="url(#clip0_755_2127)">
<path d="M9.96875 19.375C14.0625 19.375 17.5312 16.75 18.8125 13.125H1.15625C2.4375 16.7812 5.90625 19.375 9.96875 19.375Z" fill="#ED4C5C"/>
<path d="M1.29882 6.775C2.60366 3.25752 6.00026 0.725 9.96875 0.725C13.9679 0.725 17.365 3.25732 18.7 6.775H1.29882Z" fill="white" stroke="#C6C6C6" stroke-width="0.2"/>
<path d="M1.15625 6.875C0.8125 7.84375 0.625 8.90625 0.625 10C0.625 11.0938 0.8125 12.1563 1.15625 13.125H18.8437C19.1875 12.1563 19.375 11.0938 19.375 10C19.375 8.90625 19.1875 7.84375 18.8437 6.875H1.15625Z" fill="#428BC1"/>
</g>
<defs>
<clipPath id="clip0_755_2127">
<rect width="20" height="20" fill="white"/>
</clipPath>
</defs>
</svg>
