<svg width="126" height="126" viewBox="0 0 126 126" fill="none" xmlns="http://www.w3.org/2000/svg">
<path fill-rule="evenodd" clip-rule="evenodd" d="M63 0.5C28.4822 0.5 0.5 28.4822 0.5 63C0.5 97.5178 28.4822 125.5 63 125.5C97.5178 125.5 125.5 97.5178 125.5 63C125.5 46.424 118.915 30.5268 107.194 18.8058C95.4731 7.0848 79.576 0.5 63 0.5ZM63 113C35.3858 113 13 90.6142 13 63C13 35.3858 35.3858 13 63 13C90.6142 13 113 35.3858 113 63C113 76.2608 107.732 88.9785 98.3553 98.3553C88.9785 107.732 76.2608 113 63 113ZM46.6853 36.1041C48.1783 35.2862 49.9975 35.342 51.4375 36.25L88 59C89.3635 59.8732 90.1883 61.3809 90.1883 63C90.1883 64.6191 89.3635 66.1268 88 67L51.4375 89.75C49.9975 90.658 48.1783 90.7138 46.6853 89.8959C45.1923 89.078 44.26 87.5149 44.25 85.8125V40.1875C44.26 38.4851 45.1923 36.922 46.6853 36.1041Z" fill="white"/>
</svg>
